<?xml version="1.0" encoding="UTF-8" standalone="no"?>
<!-- Created with Inkscape (http://www.inkscape.org/) -->

<svg
   xmlns:dc="http://purl.org/dc/elements/1.1/"
   xmlns:cc="http://creativecommons.org/ns#"
   xmlns:rdf="http://www.w3.org/1999/02/22-rdf-syntax-ns#"
   xmlns:svg="http://www.w3.org/2000/svg"
   xmlns="http://www.w3.org/2000/svg"
   xmlns:sodipodi="http://sodipodi.sourceforge.net/DTD/sodipodi-0.dtd"
   xmlns:inkscape="http://www.inkscape.org/namespaces/inkscape"
   width="50"
   height="50"
   id="svg2"
   version="1.1"
   inkscape:version="0.48.2 r9819"
   sodipodi:docname="box.svg">
  <defs
     id="defs4" />
  <sodipodi:namedview
     id="base"
     pagecolor="#ffffff"
     bordercolor="#666666"
     borderopacity="1.0"
     inkscape:pageopacity="0.0"
     inkscape:pageshadow="2"
     inkscape:zoom="0.50478034"
     inkscape:cx="38.547357"
     inkscape:cy="122.70389"
     inkscape:document-units="px"
     inkscape:current-layer="layer1"
     showgrid="false"
     inkscape:window-width="1577"
     inkscape:window-height="913"
     inkscape:window-x="0"
     inkscape:window-y="0"
     inkscape:window-maximized="0">
    <inkscape:grid
       type="xygrid"
       id="grid3152"
       empspacing="5"
       visible="true"
       enabled="true"
       snapvisiblegridlinesonly="true" />
  </sodipodi:namedview>
  <metadata
     id="metadata7">
    <rdf:RDF>
      <cc:Work
         rdf:about="">
        <dc:format>image/svg+xml</dc:format>
        <dc:type
           rdf:resource="http://purl.org/dc/dcmitype/StillImage" />
        <dc:title></dc:title>
      </cc:Work>
    </rdf:RDF>
  </metadata>
  <g
     inkscape:label="Layer 1"
     inkscape:groupmode="layer"
     id="layer1"
     transform="translate(0,-1002.3622)">
    <g
       id="g3806"
       transform="translate(-295.32011,1011.2964)">
      <rect
         y="-5.9579029"
         x="297.37482"
         height="42.374828"
         width="45.876881"
         id="rect3793"
         style="color:#000000;fill:#20c2ef;fill-opacity:1;fill-rule:nonzero;stroke:none;stroke-width:7;marker:none;visibility:visible;display:inline;overflow:visible;enable-background:accumulate" />
      <path
         inkscape:connector-curvature="0"
         id="rect3187"
         d="m 295.32011,-8.9341604 0,50.0000004 50,0 0,-50.0000004 -50,0 z m 6,6 38,0 0,38.0000004 -38,0 0,-38.0000004 z m 4,4 0,30.0000004 3,0 0,-30.0000004 -3,0 z m 5.40625,0 0,30.0000004 3,0 0,-30.0000004 -3,0 z m 5.40625,0 0,30.0000004 3,0 0,-30.0000004 -3,0 z m 5.375,0 0,30.0000004 3,0 0,-30.0000004 -3,0 z m 5.40625,0 0,30.0000004 3,0 0,-30.0000004 -3,0 z m 5.40625,0 0,30.0000004 3,0 0,-30.0000004 -3,0 z"
         style="color:#000000;fill:#394d54;fill-opacity:1;fill-rule:nonzero;stroke:none;stroke-width:2;marker:none;visibility:visible;display:inline;overflow:visible;enable-background:accumulate" />
    </g>
  </g>
</svg>

