<?xml version="1.0" encoding="UTF-8" standalone="no"?>
<!-- Created with Inkscape (http://www.inkscape.org/) -->

<svg
   xmlns:dc="http://purl.org/dc/elements/1.1/"
   xmlns:cc="http://creativecommons.org/ns#"
   xmlns:rdf="http://www.w3.org/1999/02/22-rdf-syntax-ns#"
   xmlns:svg="http://www.w3.org/2000/svg"
   xmlns="http://www.w3.org/2000/svg"
   xmlns:sodipodi="http://sodipodi.sourceforge.net/DTD/sodipodi-0.dtd"
   xmlns:inkscape="http://www.inkscape.org/namespaces/inkscape"
   width="419.92001"
   height="228.28"
   id="svg2"
   version="1.1"
   inkscape:version="0.48.2 r9819"
   sodipodi:docname="whale.svg">
  <defs
     id="defs4" />
  <sodipodi:namedview
     id="base"
     pagecolor="#ffffff"
     bordercolor="#666666"
     borderopacity="1.0"
     inkscape:pageopacity="0.0"
     inkscape:pageshadow="2"
     inkscape:zoom="1.028957"
     inkscape:cx="282.95227"
     inkscape:cy="144.13421"
     inkscape:document-units="px"
     inkscape:current-layer="layer1"
     showgrid="false"
     inkscape:window-width="1577"
     inkscape:window-height="913"
     inkscape:window-x="0"
     inkscape:window-y="0"
     inkscape:window-maximized="0">
    <inkscape:grid
       type="xygrid"
       id="grid3152"
       empspacing="5"
       visible="true"
       enabled="true"
       snapvisiblegridlinesonly="true" />
  </sodipodi:namedview>
  <metadata
     id="metadata7">
    <rdf:RDF>
      <cc:Work
         rdf:about="">
        <dc:format>image/svg+xml</dc:format>
        <dc:type
           rdf:resource="http://purl.org/dc/dcmitype/StillImage" />
        <dc:title />
      </cc:Work>
    </rdf:RDF>
  </metadata>
  <g
     inkscape:label="Layer 1"
     inkscape:groupmode="layer"
     id="layer1"
     transform="translate(0,-824.08218)">
    <g
       id="g3770">
      <path
         style="fill:#039bc6;fill-opacity:1;stroke:none"
         d="m 328.73299,827.58169 c -20,35 -5,60 0,70 -20,20 -40,15 -325,15 -10,215.00001 305,144.98721 348,0.34375 11.15221,0.79256 40.00539,5.09026 64.6875,-26.78125 -14.97904,-10.03136 -39.20991,-16.21617 -57.6875,-8.5625 0,-20 -15,-40 -30,-50 z"
         id="path3783"
         inkscape:connector-curvature="0"
         sodipodi:nodetypes="ccccccc" />
      <g
         transform="translate(-281.26701,645.20669)"
         id="g3038">
        <path
           sodipodi:type="arc"
           style="color:#000000;fill:#ffffff;fill-opacity:1;fill-rule:nonzero;stroke:none;stroke-width:2;marker:none;visibility:visible;display:inline;overflow:visible;enable-background:accumulate"
           id="path3179"
           sodipodi:cx="302.5"
           sodipodi:cy="332.36218"
           sodipodi:rx="12.5"
           sodipodi:ry="10"
           d="m 315,332.36218 c 0,5.52285 -5.59644,10 -12.5,10 -6.90356,0 -12.5,-4.47715 -12.5,-10 0,-5.52284 5.59644,-10 12.5,-10 6.90356,0 12.5,4.47716 12.5,10 z"
           transform="matrix(0.84,0,0,1.05,149.4,-14.118109)" />
        <path
           transform="matrix(0.6,0,0,0.75,222,85.590545)"
           d="m 315,332.36218 c 0,5.52285 -5.59644,10 -12.5,10 -6.90356,0 -12.5,-4.47715 -12.5,-10 0,-5.52284 5.59644,-10 12.5,-10 6.90356,0 12.5,4.47716 12.5,10 z"
           sodipodi:ry="10"
           sodipodi:rx="12.5"
           sodipodi:cy="332.36218"
           sodipodi:cx="302.5"
           id="path3181"
           style="color:#000000;fill:#394d54;fill-opacity:1;fill-rule:nonzero;stroke:none;stroke-width:2;marker:none;visibility:visible;display:inline;overflow:visible;enable-background:accumulate"
           sodipodi:type="arc" />
        <path
           sodipodi:type="arc"
           style="color:#000000;fill:#ffffff;fill-opacity:1;fill-rule:nonzero;stroke:none;stroke-width:2;marker:none;visibility:visible;display:inline;overflow:visible;enable-background:accumulate"
           id="path3183"
           sodipodi:cx="302.5"
           sodipodi:cy="332.36218"
           sodipodi:rx="12.5"
           sodipodi:ry="10"
           d="m 315,332.36218 c 0,5.52285 -5.59644,10 -12.5,10 -6.90356,0 -12.5,-4.47715 -12.5,-10 0,-5.52284 5.59644,-10 12.5,-10 6.90356,0 12.5,4.47716 12.5,10 z"
           transform="matrix(0.24,0,0,0.3,335.4,230.65353)" />
      </g>
      <path
         sodipodi:nodetypes="cccc"
         inkscape:connector-curvature="0"
         id="path3779"
         d="m 102.04899,993.83155 c 5.62871,27.88255 41.3768,52.33515 62.68673,54.10665 -46.38028,5.0099 -112.92839,-5.5264 -140.25719,-48.50337 34.96186,2.50267 58.57267,-1.29769 77.57046,-5.60328 z"
         style="fill:#d4edf1;fill-opacity:1;stroke:none" />
      <path
         sodipodi:nodetypes="cccccc"
         inkscape:connector-curvature="0"
         id="path3781"
         d="m 3.64133,911.70843 20.83721,0.70041 c -9.74738,116.91016 162.83286,168.76706 336.37208,-35.89603 30.36651,-7.86736 39.42877,3.20238 54.1067,9.28043 -20.87564,28.54295 -50.56132,28.41991 -64.61286,26.26539 C 324.19581,1037.3154 1.03845,1146.3763 3.64133,911.70843 z"
         style="opacity:0.1;fill:#000000;stroke:none" />
      <path
         sodipodi:nodetypes="cc"
         inkscape:connector-curvature="0"
         id="path3043"
         d="m 105.73299,992.56887 c -18,7 -47,7 -79,7"
         style="fill:none;stroke:#394d54;stroke-width:7;stroke-linecap:round;stroke-linejoin:miter;stroke-miterlimit:4;stroke-opacity:1;stroke-dasharray:none" />
      <path
         sodipodi:nodetypes="ccccccc"
         inkscape:connector-curvature="0"
         id="path3003"
         d="m 328.73299,827.58169 c -20,35 -5,60 0,70 -20,20 -40,15 -325,15 -10,215.00001 305,144.98721 348,0.34375 11.15221,0.79256 40.00539,5.09026 64.6875,-26.78125 -14.97904,-10.03136 -39.20991,-16.21617 -57.6875,-8.5625 0,-20 -15,-40 -30,-50 z"
         style="fill:none;stroke:#394d54;stroke-width:7;stroke-linecap:butt;stroke-linejoin:round;stroke-miterlimit:4;stroke-opacity:1;stroke-dasharray:none" />
    </g>
  </g>
</svg>

